<svg width="65" height="40" viewBox="0 0 65 40" fill="none" xmlns="http://www.w3.org/2000/svg">
<g clip-path="url(#clip0_2003_4147)">
<path d="M64.4258 1.5C64.4258 23 49.7592 40 32.6384 40C15.5175 40 -0.074271 22 0.925485 1C5.42573 8.5 15.5175 19.7659 32.6384 19.7659C49.7592 19.7659 60.4258 8 64.4258 1.5Z" fill="#3D3638"/>
<path d="M63.7988 0.35043C64.2496 0.031252 64.7144 0.446748 64.6978 0.998786C64.1728 18.3933 50.0536 37 32.7129 37C15.3722 37 1.25298 18.3933 0.728021 0.998776C0.711361 0.446743 1.16827 0.0859048 1.58824 0.444579C4.88545 3.26058 12.6781 18.5003 32.7129 18.5003C54.2244 18.5003 60.1985 2.90004 63.7988 0.35043Z" fill="#857D7F"/>
<path fill-rule="evenodd" clip-rule="evenodd" d="M25.6816 23.9179C26.0721 23.5274 26.7053 23.5274 27.0958 23.9179L33.1387 29.9608L39.1816 23.9179C39.5721 23.5274 40.2053 23.5274 40.5958 23.9179C40.9863 24.3084 40.9863 24.9416 40.5958 25.3321L33.8458 32.0821C33.4553 32.4726 32.8221 32.4726 32.4316 32.0821L25.6816 25.3321C25.291 24.9416 25.291 24.3084 25.6816 23.9179Z" fill="white"/>
</g>
<defs>
<clipPath id="clip0_2003_4147">
<rect width="64" height="40" fill="white" transform="translate(0.712891)"/>
</clipPath>
</defs>
</svg>
