<svg width="407.443359" height="44.845703" viewBox="0 0 407.443 44.8457" fill="none" xmlns="http://www.w3.org/2000/svg" xmlns:xlink="http://www.w3.org/1999/xlink">
	<desc>
			Created with Pixso.
	</desc>
	<defs>
		<linearGradient x1="203.722656" y1="-6.183105" x2="203.722656" y2="52.816895" id="paint_linear_153_70_0" gradientUnits="userSpaceOnUse">
			<stop stop-color="#866EE1"/>
			<stop offset="1.000000" stop-color="#4B3893"/>
		</linearGradient>
	</defs>
	<path id="ПОПУЛЯРНЫЕ КЕЙСЫ" d="M333.43 8C334.99 8 335.82 7.28 335.64 5L339.97 5C340.46 8.19 337.88 11.27 333.43 11.27C328.98 11.27 326.37 8.19 326.9 5L331.23 5C331 7.28 331.83 8 333.43 8ZM30.84 26.2C30.84 15.52 33.92 12.56 42.57 12.56C51.24 12.56 54.36 15.52 54.36 26.2C54.36 36.88 51.24 39.84 42.57 39.84C33.92 39.84 30.84 36.88 30.84 26.2ZM359.88 33.69C363.56 33.69 365.74 33.65 368.17 33.38L368.73 38.59C366.19 39.46 363.83 39.77 359.88 39.77C351.49 39.77 348.41 36.19 348.41 26.2C348.41 16.21 351.49 12.64 359.88 12.64C363.8 12.64 365.65 12.9 368.17 13.59L367.63 18.83C365.05 18.75 363.38 18.72 359.88 18.72C356.76 18.72 355.89 20.31 355.89 26.2C355.89 32.09 356.76 33.69 359.88 33.69ZM133.25 31.26C133.89 28.29 135.95 27.49 137.31 27.27L137.31 27.04C133.44 26.62 132.26 24.08 132.26 20.62C132.26 14.65 135.3 12.71 142.4 12.71C147.31 12.71 149.51 12.75 152.77 13.09L152.77 39.31L145.63 39.31L145.63 29.51L142.78 29.51C141.38 29.51 140.77 29.96 140.43 31.48L138.68 39.31L131.2 39.31L133.25 31.26ZM164.71 39.31L157.57 39.31L157.57 13.09C160.91 12.75 163.15 12.71 168.17 12.71C176 12.71 178.43 14.62 178.43 21.49C178.43 28.33 176 30.23 169.12 30.23C167.63 30.23 166.12 30.12 164.71 29.96L164.71 39.31ZM252.46 33.88L262.25 33.88L262.6 39.01C258.91 39.42 253.93 39.42 249.6 39.42C246.07 39.42 243.63 37.19 243.63 33.8L243.63 18.6C243.63 15.22 246.07 12.97 249.6 12.97C253.93 12.97 258.91 12.97 262.6 13.4L262.25 18.52L252.46 18.52C251.35 18.52 250.78 19.1 250.78 20.16L250.78 23.35L260.89 23.35L260.89 28.25L250.78 28.25L250.78 32.24C250.78 33.31 251.35 33.88 252.46 33.88ZM308.01 33.88L317.81 33.88L318.15 39.01C314.47 39.42 309.49 39.42 305.15 39.42C301.63 39.42 299.19 37.19 299.19 33.8L299.19 18.6C299.19 15.22 301.63 12.97 305.15 12.97C309.49 12.97 314.47 12.97 318.15 13.4L317.81 18.52L308.01 18.52C306.91 18.52 306.33 19.1 306.33 20.16L306.33 23.35L316.45 23.35L316.45 28.25L306.33 28.25L306.33 32.24C306.33 33.31 306.91 33.88 308.01 33.88ZM5 13.09L26.96 13.09L26.96 39.31L19.82 39.31L19.82 17.96L12.1 17.96L12.1 39.31L5 39.31L5 13.09ZM58.27 13.09L80.24 13.09L80.24 39.31L73.1 39.31L73.1 17.96L65.38 17.96L65.38 39.31L58.27 39.31L58.27 13.09ZM98.59 13.09L105.89 13.09L99.84 32.35C98.44 36.99 96.88 39.39 92.89 39.77C90.88 39.96 87.42 39.54 85.64 39.24L86.4 34.29C86.54 34.3 86.67 34.3 86.81 34.31C90.8 34.46 92 34.5 92.66 32.66L92.89 31.94L91.41 31.94C89.21 31.94 88.22 30.72 87.65 28.83L82.59 13.09L89.92 13.09L93.42 26.35C93.46 26.62 93.73 26.77 94.03 26.77L94.67 26.77L98.59 13.09ZM116.08 13.09L128.01 13.09L128.01 39.31L120.86 39.31L120.86 17.96L118.47 17.96C117.1 17.96 116.37 18.6 116.3 19.89C115.84 25.37 115.35 30.23 114.29 33.38C112.58 38.78 109.12 40.18 104.48 39.46L103.99 33.95C105.78 33.69 107.07 33.27 107.71 31.44C108.59 29.01 109.08 25.33 109.5 19.28C109.8 15.18 112 13.09 116.08 13.09ZM196.67 13.09L203.81 13.09L203.81 39.31L196.67 39.31L196.67 27.98L188.84 27.98L188.84 39.31L181.73 39.31L181.73 13.09L188.84 13.09L188.84 22.78L196.67 22.78L196.67 13.09ZM215.78 13.09L215.78 22.44L218.67 22.44C226.24 22.44 228.7 24.41 228.7 31.03C228.7 37.72 226.08 39.62 219.93 39.62C214.91 39.62 212.14 39.58 208.83 39.31L208.64 39.31L208.64 13.09L215.78 13.09ZM231.93 13.09L239.08 13.09L239.08 39.31L231.93 39.31L231.93 13.09ZM295.93 13.09C293.03 22.47 292.89 24.83 287.68 25.52L287.68 25.75C293.07 26.51 293.41 28.56 296.64 39.31L289.2 39.31C286.5 29.81 286.2 28.1 282.55 28.1L281.18 28.1C281.37 28.94 281.48 29.81 281.48 30.54L281.48 39.31L274.38 39.31L274.38 13.09L281.48 13.09L281.48 20.04C281.48 21.11 281.37 22.25 281.18 23.32L282.43 23.32C286.12 23.32 286.61 20.96 288.66 13.09L295.93 13.09ZM344.49 13.09L344.49 39.31L337.69 39.31L337.69 25.63C337.69 24.34 337.84 23.09 338.07 21.8L337.8 21.8C337.38 23.12 336.89 24.38 336.25 25.55L328.72 39.31L321.84 39.31L321.84 13.09L328.6 13.09L328.6 26.43C328.6 27.65 328.45 29.05 328.22 30.42L328.49 30.42C328.95 29.09 329.48 27.8 330.09 26.66L337.61 13.09L344.49 13.09ZM379.14 13.09L379.14 22.44L382.03 22.44C389.6 22.44 392.07 24.41 392.07 31.03C392.07 37.72 389.44 39.62 383.29 39.62C378.27 39.62 375.5 39.58 372.19 39.31L372 39.31L372 13.09L379.14 13.09ZM395.3 13.09L402.44 13.09L402.44 39.31L395.3 39.31L395.3 13.09ZM142.56 24.3L145.63 24.3L145.63 17.92L142.56 17.92C140.08 17.92 139.44 18.57 139.41 21.07C139.41 23.54 140.08 24.3 142.56 24.3ZM164.71 17.92L164.71 25.02L167.98 25.02C170.56 25.02 171.29 24.3 171.29 21.49C171.29 18.64 170.56 17.92 167.98 17.92L164.71 17.92ZM46.83 26.2C46.83 19.75 45.92 18.03 42.57 18.03C39.24 18.03 38.33 19.75 38.33 26.2C38.33 32.66 39.24 34.38 42.57 34.38C45.92 34.38 46.83 32.66 46.83 26.2ZM215.78 27L215.78 34.45L218.67 34.49C221.11 34.49 221.56 33.8 221.56 30.8C221.56 27.84 221.11 27 218.67 27L215.78 27ZM379.14 27L379.14 34.45L382.03 34.49C384.47 34.49 384.92 33.8 384.92 30.8C384.92 27.84 384.47 27 382.03 27L379.14 27Z" fill="#FFFFFF" fill-opacity="1.000000" fill-rule="evenodd"/>
	<path id="ПОПУЛЯРНЫЕ КЕЙСЫ" d="M26.96 13.09L5 13.09L5 39.31L12.1 39.31L12.1 17.96L19.82 17.96L19.82 39.31L26.96 39.31L26.96 13.09ZM42.57 12.56C33.92 12.56 30.84 15.52 30.84 26.2C30.84 36.88 33.92 39.84 42.57 39.84C51.24 39.84 54.36 36.88 54.36 26.2C54.36 15.52 51.24 12.56 42.57 12.56ZM42.57 18.03C45.92 18.03 46.83 19.75 46.83 26.2C46.83 32.66 45.92 34.38 42.57 34.38C39.24 34.38 38.33 32.66 38.33 26.2C38.33 19.75 39.24 18.03 42.57 18.03ZM80.24 13.09L58.27 13.09L58.27 39.31L65.38 39.31L65.38 17.96L73.1 17.96L73.1 39.31L80.24 39.31L80.24 13.09ZM105.89 13.09L98.59 13.09L94.67 26.77L94.03 26.77C93.73 26.77 93.46 26.62 93.42 26.35L89.92 13.09L82.59 13.09L87.65 28.83C88.22 30.72 89.21 31.94 91.41 31.94L92.89 31.94L92.66 32.66C91.98 34.56 90.72 34.45 86.4 34.29L85.64 39.24C87.42 39.54 90.88 39.96 92.89 39.77C96.88 39.39 98.44 36.99 99.84 32.35L105.89 13.09ZM128.01 13.09L116.08 13.09C112 13.09 109.8 15.18 109.5 19.28C109.08 25.33 108.59 29.01 107.71 31.44C107.07 33.27 105.78 33.69 103.99 33.95L104.48 39.46C109.12 40.18 112.58 38.78 114.29 33.38C115.35 30.23 115.84 25.37 116.3 19.89C116.37 18.6 117.1 17.96 118.47 17.96L120.86 17.96L120.86 39.31L128.01 39.31L128.01 13.09ZM137.31 27.27C135.95 27.49 133.89 28.29 133.25 31.26L131.2 39.31L138.68 39.31L140.43 31.48C140.77 29.96 141.38 29.51 142.78 29.51L145.63 29.51L145.63 39.31L152.77 39.31L152.77 13.09C149.51 12.75 147.31 12.71 142.4 12.71C135.3 12.71 132.26 14.65 132.26 20.62C132.26 24.08 133.44 26.62 137.31 27.04L137.31 27.27ZM145.63 24.3L142.56 24.3C140.08 24.3 139.41 23.54 139.41 21.07C139.44 18.57 140.08 17.92 142.56 17.92L145.63 17.92L145.63 24.3ZM157.57 39.31L164.71 39.31L164.71 29.96C166.12 30.12 167.63 30.23 169.12 30.23C176 30.23 178.43 28.33 178.43 21.49C178.43 14.62 176 12.71 168.17 12.71C163.15 12.71 160.91 12.75 157.57 13.09L157.57 39.31ZM164.71 25.02L164.71 17.92L167.98 17.92C170.56 17.92 171.29 18.64 171.29 21.49C171.29 24.3 170.56 25.02 167.98 25.02L164.71 25.02ZM203.81 13.09L196.67 13.09L196.67 22.78L188.84 22.78L188.84 13.09L181.73 13.09L181.73 39.31L188.84 39.31L188.84 27.98L196.67 27.98L196.67 39.31L203.81 39.31L203.81 13.09ZM215.78 22.44L215.78 13.09L208.64 13.09L208.64 39.31L208.83 39.31C212.14 39.58 214.91 39.62 219.93 39.62C226.08 39.62 228.7 37.72 228.7 31.03C228.7 24.41 226.24 22.44 218.67 22.44L215.78 22.44ZM239.08 13.09L231.93 13.09L231.93 39.31L239.08 39.31L239.08 13.09ZM215.78 34.45L215.78 27L218.67 27C221.11 27 221.56 27.84 221.56 30.8C221.56 33.8 221.11 34.49 218.67 34.49L215.78 34.45ZM262.25 33.88L252.46 33.88C251.35 33.88 250.78 33.31 250.78 32.24L250.78 28.25L260.89 28.25L260.89 23.35L250.78 23.35L250.78 20.16C250.78 19.1 251.35 18.52 252.46 18.52L262.25 18.52L262.6 13.4C258.91 12.97 253.93 12.97 249.6 12.97C246.07 12.97 243.63 15.22 243.63 18.6L243.63 33.8C243.63 37.19 246.07 39.42 249.6 39.42C253.93 39.42 258.91 39.42 262.6 39.01L262.25 33.88ZM287.68 25.52C292.89 24.83 293.03 22.47 295.93 13.09L288.66 13.09C286.61 20.96 286.12 23.32 282.43 23.32L281.18 23.32C281.37 22.25 281.48 21.11 281.48 20.04L281.48 13.09L274.38 13.09L274.38 39.31L281.48 39.31L281.48 30.54C281.48 29.81 281.37 28.94 281.18 28.1L282.55 28.1C286.2 28.1 286.5 29.81 289.2 39.31L296.64 39.31C293.41 28.56 293.07 26.51 287.68 25.75L287.68 25.52ZM317.81 33.88L308.01 33.88C306.91 33.88 306.33 33.31 306.33 32.24L306.33 28.25L316.45 28.25L316.45 23.35L306.33 23.35L306.33 20.16C306.33 19.1 306.91 18.52 308.01 18.52L317.81 18.52L318.15 13.4C314.47 12.97 309.49 12.97 305.15 12.97C301.63 12.97 299.19 15.22 299.19 18.6L299.19 33.8C299.19 37.19 301.63 39.42 305.15 39.42C309.49 39.42 314.47 39.42 318.15 39.01L317.81 33.88ZM335.64 5C335.82 7.28 334.99 8 333.43 8C331.83 8 331 7.28 331.23 5L326.9 5C326.37 8.19 328.98 11.27 333.43 11.27C337.88 11.27 340.46 8.19 339.97 5L335.64 5ZM344.49 39.31L344.49 13.09L337.61 13.09L330.09 26.66C329.48 27.8 328.95 29.09 328.49 30.42L328.22 30.42C328.45 29.05 328.6 27.65 328.6 26.43L328.6 13.09L321.84 13.09L321.84 39.31L328.72 39.31L336.25 25.55C336.89 24.38 337.38 23.12 337.8 21.8L338.07 21.8C337.84 23.09 337.69 24.34 337.69 25.63L337.69 39.31L344.49 39.31ZM368.17 33.38C365.74 33.65 363.56 33.69 359.88 33.69C356.76 33.69 355.89 32.09 355.89 26.2C355.89 20.31 356.76 18.72 359.88 18.72C363.38 18.72 365.05 18.75 367.63 18.83L368.17 13.59C365.65 12.9 363.8 12.64 359.88 12.64C351.49 12.64 348.41 16.21 348.41 26.2C348.41 36.19 351.49 39.77 359.88 39.77C363.83 39.77 366.19 39.46 368.73 38.59L368.17 33.38ZM379.14 22.44L379.14 13.09L372 13.09L372 39.31L372.19 39.31C375.5 39.58 378.27 39.62 383.29 39.62C389.44 39.62 392.07 37.72 392.07 31.03C392.07 24.41 389.6 22.44 382.03 22.44L379.14 22.44ZM402.44 13.09L395.3 13.09L395.3 39.31L402.44 39.31L402.44 13.09ZM379.14 34.45L379.14 27L382.03 27C384.47 27 384.92 27.84 384.92 30.8C384.92 33.8 384.47 34.49 382.03 34.49L379.14 34.45Z" stroke="url(#paint_linear_153_70_0)" stroke-opacity="1.000000" stroke-width="5.000000"/>
</svg>
