<svg width="360" height="200" viewBox="0 0 360 200" fill="none" xmlns="http://www.w3.org/2000/svg">
<g clip-path="url(#clip0_687_758)">
<path fill-rule="evenodd" clip-rule="evenodd" d="M54.6362 115.775V82.426C53.6624 82.426 52.6978 82.4251 51.7401 82.4242H51.74H51.74H51.7399H51.7398C48.8942 82.4214 46.1097 82.4188 43.3251 82.4406C42.8664 82.4406 42.4077 82.5523 41.949 82.664C41.7656 82.7087 41.5821 82.7534 41.3986 82.7909C32.0286 84.659 31.2113 95.0214 35.1374 100.48C35.9999 101.669 36.9079 102.834 37.845 104.038C38.2082 104.504 38.5757 104.976 38.9467 105.457C37.9618 106.942 36.8147 108.658 35.563 110.531C34.4405 112.21 33.2339 114.015 31.9849 115.892C32.3967 115.892 32.749 115.877 33.0603 115.864C33.6205 115.84 34.048 115.822 34.4514 115.907C37.7061 116.607 39.6326 115.133 41.2235 112.375C42.5225 110.117 44.0182 107.99 45.4687 105.928C46.0716 105.07 46.6666 104.224 47.2366 103.384C46.5213 102.795 45.8074 102.238 45.1064 101.69L45.1064 101.69L45.1064 101.69L45.1063 101.69C43.5332 100.462 42.0251 99.2843 40.7126 97.9112C38.1001 95.1674 38.1147 89.7819 42.2451 88.0013C43.5062 87.4608 44.9321 87.3116 46.4427 87.1535C47.1348 87.081 47.8447 87.0067 48.5647 86.8921V115.775H54.6362ZM84.4817 93.0843C84.4803 99.1875 84.4789 105.214 82.2644 110.974L82.2499 111.003C81.6077 111.105 81.0385 111.193 80.5276 111.266V121.278H85.957V115.995H98.4648V121.307H103.792V111.207C102.931 111.12 102.172 111.047 101.296 110.974V91.7232H84.4829C84.4819 92.1771 84.4818 92.6306 84.4817 93.0838V93.0839V93.084V93.0842V93.0843ZM95.3561 110.974H88.4965C88.9927 106.143 89.4743 101.414 89.9706 96.5103H95.3561V110.974ZM124.838 105.953H111.323C111.936 110.726 115.03 112.696 119.628 111.339C120.766 111.005 121.872 110.559 123.046 110.085C123.618 109.855 124.207 109.617 124.823 109.383C124.823 109.787 124.829 110.194 124.835 110.602C124.849 111.672 124.864 112.753 124.78 113.82C124.75 114.214 124.196 114.783 123.772 114.885C123.345 114.991 122.916 115.101 122.486 115.211L122.486 115.211C120.599 115.696 118.695 116.185 116.782 116.316C113.921 116.505 111.133 116.038 108.754 113.98C106.288 111.85 105.354 109.062 105.091 106.07C104.741 102.056 104.96 97.9844 107.645 94.6859C108.711 93.3724 110.331 92.0735 111.921 91.6794C118.985 89.9572 124.59 92.2632 124.838 100.845C124.867 101.885 124.858 102.925 124.848 104.05V104.051V104.051V104.051V104.052V104.053V104.053C124.843 104.649 124.838 105.268 124.838 105.924V105.953ZM118.839 101.473C118.737 98.1158 117.949 95.9703 115.41 95.9557C113.118 95.9265 111.498 97.5611 111.396 101.473H118.839ZM64.9987 101.064V91.7086H64.9841H59.2483V115.732H65.0571V106.055H72.4275V115.776H78.105V91.7524H72.2962V101.064H64.9987ZM128.647 91.6502H134.281V101.619C134.313 101.631 134.346 101.644 134.379 101.657C134.497 101.703 134.619 101.751 134.733 101.808C134.955 101.486 135.174 101.162 135.391 100.837L135.392 100.837C135.746 100.31 136.1 99.7838 136.47 99.2687C136.926 98.6491 137.394 98.038 137.862 97.427C138.894 96.0808 139.926 94.735 140.819 93.2994C141.651 91.9713 142.571 91.4604 144.074 91.5772C144.919 91.6452 145.778 91.6291 146.757 91.6108C147.248 91.6016 147.77 91.5918 148.336 91.5918L147.311 93.0463L147.308 93.0507C145.995 94.9142 144.762 96.6656 143.519 98.4076C143.203 98.8525 142.811 99.2917 142.421 99.73L142.421 99.7301C141.568 100.687 140.719 101.639 140.659 102.64C140.605 103.644 141.482 104.71 142.339 105.753C142.653 106.136 142.965 106.515 143.227 106.887C144.417 108.592 145.63 110.278 146.845 111.966C147.523 112.908 148.201 113.851 148.876 114.798C148.977 114.944 149.037 115.12 149.119 115.357C149.167 115.497 149.223 115.659 149.299 115.849C148.664 115.849 148.036 115.871 147.415 115.894C145.923 115.948 144.473 116 143.082 115.732C142.278 115.581 141.572 114.589 140.954 113.719C140.853 113.578 140.755 113.44 140.659 113.309C139.268 111.415 137.919 109.493 136.464 107.418L136.463 107.418L136.463 107.417C135.81 106.487 135.136 105.526 134.427 104.523V115.761H128.647V91.6502ZM166.302 97.4537C166.307 97.4554 166.312 97.4571 166.317 97.4588H166.302C166.302 97.4571 166.302 97.4554 166.302 97.4537ZM164.907 96.9048C165.354 97.0899 165.815 97.2811 166.302 97.4537C166.302 97.0581 166.294 96.6791 166.286 96.312C166.267 95.4894 166.251 94.7265 166.331 93.9707C166.477 92.5258 165.908 91.7084 164.507 91.6063C164.269 91.5878 164.032 91.5689 163.794 91.5501C161.784 91.3907 159.776 91.2314 157.779 91.2706C154.509 91.329 150.948 94.1312 149.795 97.1815C148.409 100.874 148.321 104.654 149.109 108.42C149.649 111.061 150.788 113.484 153.342 114.827C157.268 116.87 161.34 116.899 165.426 115.381C165.806 115.235 166.229 114.637 166.258 114.228C166.333 113.228 166.322 112.221 166.311 111.165C166.306 110.773 166.302 110.374 166.302 109.967C165.889 110.127 165.506 110.296 165.142 110.456C164.413 110.777 163.758 111.066 163.077 111.193C158.975 111.937 156.713 111.66 155.575 107.777C154.962 105.676 154.874 103.209 155.297 101.049C156.173 96.5831 157.91 95.4739 162.259 96.0577C163.148 96.1749 163.997 96.5271 164.907 96.9048Z" fill="black"/>
<path fill-rule="evenodd" clip-rule="evenodd" d="M328 114.96C325.096 116.186 322.075 117.003 318.937 116.244C313.873 115.018 310.939 111.398 310.53 106.115C310.268 102.758 310.735 99.4597 312.398 96.4824C314.996 91.812 319.565 91.3887 324.293 91.9579C324.441 91.9753 324.592 91.9908 324.746 92.0066C325.881 92.1231 327.141 92.2523 328.015 93.2423V97.11C326.911 97.3508 325.911 97.019 324.915 96.6886C324.462 96.5384 324.01 96.3884 323.549 96.2926C320.82 95.7088 317.74 97.3289 316.894 99.9414C316.003 102.685 316.237 105.429 317.025 108.1C317.974 111.296 320.542 112.435 323.928 111.778C324.48 111.67 324.99 111.435 325.496 111.203C326.289 110.838 327.074 110.477 328 110.61V114.96ZM278.524 103.94C278.524 102.997 278.528 102.056 278.533 101.114C278.545 98.7632 278.557 96.415 278.494 94.0594C278.465 92.7459 278.801 92.0891 280.231 92.2643C280.946 92.3518 281.691 92.3664 282.406 92.2643C283.968 92.0453 284.347 92.7459 284.259 94.1762C284.143 96.1027 284.186 98.0293 284.259 99.9558C284.266 100.116 284.243 100.292 284.221 100.472C284.139 101.112 284.052 101.796 285.237 101.955C286.668 102.145 287.266 101.503 287.529 100.291C287.568 100.11 287.605 99.9282 287.643 99.746C287.84 98.7845 288.037 97.8205 288.565 96.9492C291.353 92.2935 295.06 91.1551 299.497 91.987C304.911 93.0086 307.115 96.8617 307.553 101.78C307.816 104.816 307.743 107.895 306.327 110.873C304.503 114.697 299.964 117.046 295.848 116.346C291.63 115.616 288.813 113.369 287.704 108.231C287.412 106.874 286.945 106.129 285.369 106.246C284.047 106.348 284.142 107.088 284.232 107.79C284.258 107.994 284.284 108.196 284.274 108.377C284.186 110.143 284.157 111.909 284.274 113.675C284.376 115.266 283.982 115.966 282.187 115.908C281.667 115.889 281.219 115.88 280.835 115.872C279.572 115.846 278.985 115.834 278.72 115.536C278.49 115.278 278.502 114.804 278.524 113.921V113.919C278.535 113.503 278.547 112.995 278.538 112.376C278.509 110.499 278.519 108.628 278.528 106.755L278.529 106.744C278.533 105.81 278.538 104.876 278.538 103.94H278.524ZM301.773 103.984C301.773 103.612 301.783 103.257 301.792 102.914C301.81 102.209 301.827 101.558 301.759 100.919C301.423 98.0147 299.818 96.2779 297.409 96.1173C295.381 95.986 293.688 97.3287 293.235 100.175C292.827 102.729 292.681 105.385 293.425 107.983C294.009 110.026 294.768 111.632 297.38 111.617C300.095 111.617 300.766 109.866 301.496 107.822C301.78 107.014 301.755 106.221 301.731 105.47C301.714 104.947 301.698 104.443 301.788 103.969L301.773 103.984ZM273.928 106.905C273.935 105.961 273.941 105.016 273.941 104.072L273.926 104.086V93.9721C273.926 93.9211 273.927 93.8702 273.927 93.8196C273.931 92.9729 273.936 92.2062 272.627 92.2062C268.02 92.2353 263.428 92.2208 258.82 92.2062L258.806 92.2062C257.901 92.2062 257.492 92.5127 257.522 93.4613C257.578 94.9552 257.418 96.4356 257.258 97.9188C257.085 99.5219 256.912 101.128 257.011 102.758C257.157 105.05 257.054 107.341 256.617 109.647C256.369 110.888 255.434 111.515 254.734 111.428C253.493 111.267 252.953 111.326 253.158 112.683C253.217 113.05 253.187 113.451 253.158 113.852C253.079 114.932 253 116.007 254.661 116.39C257.157 116.959 260.309 115.237 260.893 112.785C260.956 112.524 261.02 112.263 261.084 112.002C261.603 109.897 262.124 107.779 261.929 105.546C261.745 103.339 261.994 101.142 262.243 98.9464C262.29 98.5292 262.337 98.1109 262.382 97.6939C262.469 96.8328 262.805 96.5992 263.578 96.6284C263.714 96.6329 263.85 96.638 263.986 96.6431C264.744 96.6717 265.507 96.7004 266.249 96.6138C267.826 96.4095 268.307 96.9933 268.278 98.5841C268.194 101.946 268.208 105.308 268.223 108.669V108.672C268.229 109.965 268.234 111.258 268.234 112.552C268.234 114.298 268.234 115.159 268.665 115.578C269.083 115.986 269.91 115.975 271.54 115.954L271.708 115.952C273.328 115.923 274.028 115.427 273.97 113.705C273.898 111.438 273.913 109.172 273.928 106.905ZM240.066 87.3895C236.777 87.5841 235.133 89.389 235.133 92.8042C235.133 94.6851 235.13 96.566 235.126 98.4472V98.4489V98.4507C235.118 103.473 235.109 108.497 235.162 113.529C235.177 115.207 234.914 115.981 232.958 115.908L232.591 115.895C229.381 115.781 229.368 115.781 229.368 112.318C229.368 110.047 229.37 107.777 229.371 105.507V105.505C229.377 98.6992 229.382 91.8939 229.339 85.0981C229.339 83.551 229.718 83.011 231.338 83.084C233.484 83.1861 235.636 83.1882 237.786 83.1902C238.707 83.1911 239.627 83.192 240.546 83.2007L240.548 83.1862C241.468 83.1772 242.387 83.1737 243.305 83.1703C245.373 83.1625 247.437 83.1547 249.509 83.084C250.823 83.0402 251.129 83.5656 251.129 84.777C251.085 94.4826 251.085 104.188 251.129 113.894C251.129 115.543 250.385 115.908 248.925 115.952L248.792 115.955C247.071 115.998 246.214 116.019 245.787 115.601C245.364 115.186 245.364 114.34 245.364 112.653C245.364 110.54 245.356 108.428 245.348 106.316C245.327 100.888 245.307 95.4634 245.422 90.0312C245.466 87.8128 244.766 87.1998 242.708 87.4625C242.112 87.5432 241.496 87.4983 240.877 87.4533C240.602 87.4332 240.326 87.4131 240.051 87.4041L240.066 87.3895ZM215.765 94.1472C217.342 94.3224 217.823 94.0013 217.079 92.2937C216.203 90.2796 215.269 88.386 213.897 86.6784C212.934 84.8832 211.27 83.7117 209.84 82.3543C209.139 81.6976 208.249 81.1867 207.782 82.9819C206.919 86.3305 205.725 89.5773 204.571 92.8335C204.078 94.2329 204.977 94.2193 205.784 94.2066C205.708 94.2066 205.861 94.2054 205.784 94.2066C209.046 94.1708 212.659 94.2078 215.765 94.1472Z" fill="#436AF9"/>
<path fill-rule="evenodd" clip-rule="evenodd" d="M328 114.96C325.096 116.186 322.075 117.003 318.937 116.244C313.873 115.018 310.939 111.398 310.53 106.115C310.268 102.758 310.735 99.4597 312.398 96.4824C314.996 91.812 319.565 91.3887 324.293 91.9579C324.441 91.9753 324.592 91.9908 324.746 92.0066C325.881 92.1231 327.141 92.2523 328.015 93.2423V97.11C326.911 97.3508 325.911 97.019 324.915 96.6886C324.462 96.5384 324.01 96.3884 323.549 96.2926C320.82 95.7088 317.74 97.3289 316.894 99.9414C316.003 102.685 316.237 105.429 317.025 108.1C317.974 111.296 320.542 112.435 323.928 111.778C324.48 111.67 324.99 111.435 325.496 111.203C326.289 110.838 327.074 110.477 328 110.61V114.96ZM278.524 103.94C278.524 102.997 278.528 102.056 278.533 101.114C278.545 98.7632 278.557 96.415 278.494 94.0594C278.465 92.7459 278.801 92.0891 280.231 92.2643C280.946 92.3518 281.691 92.3664 282.406 92.2643C283.968 92.0453 284.347 92.7459 284.259 94.1762C284.143 96.1027 284.186 98.0293 284.259 99.9558C284.266 100.116 284.243 100.292 284.221 100.472C284.139 101.112 284.052 101.796 285.237 101.955C286.668 102.145 287.266 101.503 287.529 100.291C287.568 100.11 287.605 99.9282 287.643 99.746C287.84 98.7845 288.037 97.8205 288.565 96.9492C291.353 92.2935 295.06 91.1551 299.497 91.987C304.911 93.0086 307.115 96.8617 307.553 101.78C307.816 104.816 307.743 107.895 306.327 110.873C304.503 114.697 299.964 117.046 295.848 116.346C291.63 115.616 288.813 113.369 287.704 108.231C287.412 106.874 286.945 106.129 285.369 106.246C284.047 106.348 284.142 107.088 284.232 107.79C284.258 107.994 284.284 108.196 284.274 108.377C284.186 110.143 284.157 111.909 284.274 113.675C284.376 115.266 283.982 115.966 282.187 115.908C281.667 115.889 281.219 115.88 280.835 115.872C279.572 115.846 278.985 115.834 278.72 115.536C278.49 115.278 278.502 114.804 278.524 113.921V113.919C278.535 113.503 278.547 112.995 278.538 112.376C278.509 110.499 278.519 108.628 278.528 106.755L278.529 106.744C278.533 105.81 278.538 104.876 278.538 103.94H278.524ZM301.773 103.984C301.773 103.612 301.783 103.257 301.792 102.914C301.81 102.209 301.827 101.558 301.759 100.919C301.423 98.0147 299.818 96.2779 297.409 96.1173C295.381 95.986 293.688 97.3287 293.235 100.175C292.827 102.729 292.681 105.385 293.425 107.983C294.009 110.026 294.768 111.632 297.38 111.617C300.095 111.617 300.766 109.866 301.496 107.822C301.78 107.014 301.755 106.221 301.731 105.47C301.714 104.947 301.698 104.443 301.788 103.969L301.773 103.984ZM273.928 106.905C273.935 105.961 273.941 105.016 273.941 104.072L273.926 104.086V93.9721C273.926 93.9211 273.927 93.8702 273.927 93.8196C273.931 92.9729 273.936 92.2062 272.627 92.2062C268.02 92.2353 263.428 92.2208 258.82 92.2062L258.806 92.2062C257.901 92.2062 257.492 92.5127 257.522 93.4613C257.578 94.9552 257.418 96.4356 257.258 97.9188C257.085 99.5219 256.912 101.128 257.011 102.758C257.157 105.05 257.054 107.341 256.617 109.647C256.369 110.888 255.434 111.515 254.734 111.428C253.493 111.267 252.953 111.326 253.158 112.683C253.217 113.05 253.187 113.451 253.158 113.852C253.079 114.932 253 116.007 254.661 116.39C257.157 116.959 260.309 115.237 260.893 112.785C260.956 112.524 261.02 112.263 261.084 112.002C261.603 109.897 262.124 107.779 261.929 105.546C261.745 103.339 261.994 101.142 262.243 98.9464C262.29 98.5292 262.337 98.1109 262.382 97.6939C262.469 96.8328 262.805 96.5992 263.578 96.6284C263.714 96.6329 263.85 96.638 263.986 96.6431C264.744 96.6717 265.507 96.7004 266.249 96.6138C267.826 96.4095 268.307 96.9933 268.278 98.5841C268.194 101.946 268.208 105.308 268.223 108.669V108.672C268.229 109.965 268.234 111.258 268.234 112.552C268.234 114.298 268.234 115.159 268.665 115.578C269.083 115.986 269.91 115.975 271.54 115.954L271.708 115.952C273.328 115.923 274.028 115.427 273.97 113.705C273.898 111.438 273.913 109.172 273.928 106.905ZM240.066 87.3895C236.777 87.5841 235.133 89.389 235.133 92.8042C235.133 94.6851 235.13 96.566 235.126 98.4472V98.4489V98.4507C235.118 103.473 235.109 108.497 235.162 113.529C235.177 115.207 234.914 115.981 232.958 115.908L232.591 115.895C229.381 115.781 229.368 115.781 229.368 112.318C229.368 110.047 229.37 107.777 229.371 105.507V105.505C229.377 98.6992 229.382 91.8939 229.339 85.0981C229.339 83.551 229.718 83.011 231.338 83.084C233.484 83.1861 235.636 83.1882 237.786 83.1902C238.707 83.1911 239.627 83.192 240.546 83.2007L240.548 83.1862C241.468 83.1772 242.387 83.1737 243.305 83.1703C245.373 83.1625 247.437 83.1547 249.509 83.084C250.823 83.0402 251.129 83.5656 251.129 84.777C251.085 94.4826 251.085 104.188 251.129 113.894C251.129 115.543 250.385 115.908 248.925 115.952L248.792 115.955C247.071 115.998 246.214 116.019 245.787 115.601C245.364 115.186 245.364 114.34 245.364 112.653C245.364 110.54 245.356 108.428 245.348 106.316C245.327 100.888 245.307 95.4634 245.422 90.0312C245.466 87.8128 244.766 87.1998 242.708 87.4625C242.112 87.5432 241.496 87.4983 240.877 87.4533C240.602 87.4332 240.326 87.4131 240.051 87.4041L240.066 87.3895ZM215.765 94.1472C217.342 94.3224 217.823 94.0013 217.079 92.2937C216.203 90.2796 215.269 88.386 213.897 86.6784C212.934 84.8832 211.27 83.7117 209.84 82.3543C209.139 81.6976 208.249 81.1867 207.782 82.9819C206.919 86.3305 205.725 89.5773 204.571 92.8335C204.078 94.2329 204.977 94.2193 205.784 94.2066C205.708 94.2066 205.861 94.2054 205.784 94.2066C209.046 94.1708 212.659 94.2078 215.765 94.1472Z" fill="url(#paint0_linear_687_758)"/>
<path d="M202.178 82.3544C202.98 80.136 203.17 78.3554 200.222 77.8008C187.017 77.8008 173.75 84.1836 174.529 100.452C174.75 105.08 176.53 109.653 179.803 113.558L179.818 113.558C183.703 117.894 189.326 121.25 195.376 121.25V121.235C199.215 121.517 208.304 120.14 213.949 112.376H213.956C215.999 110.041 217.152 107.268 217.692 104.305C218.582 99.3574 218.48 99.3428 213.357 99.5909L213.357 99.6054C210.078 99.5908 206.695 99.5438 203.416 99.5438C202.841 99.519 202.761 99.6932 202.294 100.452C201.261 102.488 200.65 104.675 200.055 106.862C199.367 109.385 198.827 113.233 195.362 112.624V112.638L195.343 112.637C193.826 112.558 193.079 112.52 192.82 112.145C192.57 111.781 192.807 110.999 193.214 109.663C194.226 106.313 195.672 103.082 196.223 99.6055L183.204 99.5909L183.204 99.5952C182.921 99.5909 181.879 99.483 182.022 99.2262C182.368 98.6015 182.505 97.8916 182.641 97.1836C182.862 96.0389 183.082 94.8992 184.182 94.1327L195.362 94.1325C196.763 94.3077 198.164 94.4244 198.733 92.6876C199.065 91.6835 199.392 90.6763 199.719 89.6694C200.514 87.2225 201.309 84.7738 202.178 82.3544Z" fill="#436AF9"/>
<path d="M202.178 82.3544C202.98 80.136 203.17 78.3554 200.222 77.8008C187.017 77.8008 173.75 84.1836 174.529 100.452C174.75 105.08 176.53 109.653 179.803 113.558L179.818 113.558C183.703 117.894 189.326 121.25 195.376 121.25V121.235C199.215 121.517 208.304 120.14 213.949 112.376H213.956C215.999 110.041 217.152 107.268 217.692 104.305C218.582 99.3574 218.48 99.3428 213.357 99.5909L213.357 99.6054C210.078 99.5908 206.695 99.5438 203.416 99.5438C202.841 99.519 202.761 99.6932 202.294 100.452C201.261 102.488 200.65 104.675 200.055 106.862C199.367 109.385 198.827 113.233 195.362 112.624V112.638L195.343 112.637C193.826 112.558 193.079 112.52 192.82 112.145C192.57 111.781 192.807 110.999 193.214 109.663C194.226 106.313 195.672 103.082 196.223 99.6055L183.204 99.5909L183.204 99.5952C182.921 99.5909 181.879 99.483 182.022 99.2262C182.368 98.6015 182.505 97.8916 182.641 97.1836C182.862 96.0389 183.082 94.8992 184.182 94.1327L195.362 94.1325C196.763 94.3077 198.164 94.4244 198.733 92.6876C199.065 91.6835 199.392 90.6763 199.719 89.6694C200.514 87.2225 201.309 84.7738 202.178 82.3544Z" fill="url(#paint1_linear_687_758)"/>
</g>
<defs>
<linearGradient id="paint0_linear_687_758" x1="174.496" y1="99.5348" x2="328.278" y2="99.5348" gradientUnits="userSpaceOnUse">
<stop stop-color="#FD5A55"/>
<stop offset="0.435304" stop-color="#8242EF"/>
<stop offset="1" stop-color="#8242EF" stop-opacity="0"/>
</linearGradient>
<linearGradient id="paint1_linear_687_758" x1="174.496" y1="99.5348" x2="328.278" y2="99.5348" gradientUnits="userSpaceOnUse">
<stop stop-color="#FD5A55"/>
<stop offset="0.435304" stop-color="#8242EF"/>
<stop offset="1" stop-color="#8242EF" stop-opacity="0"/>
</linearGradient>
<clipPath id="clip0_687_758">
<rect width="296" height="47.36" fill="white" transform="translate(32 76.3201)"/>
</clipPath>
</defs>
</svg>
