<svg width="23.962891" height="14.700195" viewBox="0 0 23.9629 14.7002" fill="none" xmlns="http://www.w3.org/2000/svg" xmlns:xlink="http://www.w3.org/1999/xlink">
	<desc>
			Created with Pixso.
	</desc>
	<defs/>
	<path id="Vector" d="M2.27 13.01L21.68 13.01L21.68 14.7L2.27 14.7L2.27 13.01Z" fill="#FFFFFF" fill-opacity="1.000000" fill-rule="nonzero"/>
	<path id="Vector" d="M16.81 8.32C16.76 8.34 16.71 8.36 16.66 8.37C16.6 8.37 16.54 8.36 16.49 8.35C16.44 8.33 16.39 8.31 16.35 8.27C16.3 8.23 16.27 8.19 16.24 8.14L11.98 0L7.71 8.14C7.68 8.19 7.65 8.23 7.61 8.27C7.56 8.31 7.51 8.33 7.46 8.35C7.41 8.36 7.35 8.37 7.3 8.37C7.24 8.36 7.19 8.34 7.14 8.32L0 4.56L2.17 12.16L21.78 12.16L23.96 4.56L16.81 8.32ZM11.98 9.63C11.05 9.63 10.29 8.69 10.29 7.52C10.29 6.36 11.05 5.41 11.98 5.41C12.91 5.41 13.66 6.36 13.66 7.52C13.66 8.69 12.91 9.63 11.98 9.63Z" fill="#FFFFFF" fill-opacity="1.000000" fill-rule="nonzero"/>
</svg>
